<?xml version="1.0" encoding="utf-8"?>
<!-- Generator: Adobe Illustrator 24.1.0, SVG Export Plug-In . SVG Version: 6.00 Build 0)  -->
<svg version="1.1" id="Laag_1" xmlns="http://www.w3.org/2000/svg" xmlns:xlink="http://www.w3.org/1999/xlink" x="0px" y="0px"
	 viewBox="0 0 141.33 129.56" style="enable-background:new 0 0 141.33 129.56;" xml:space="preserve">
<style type="text/css">
	.st0{fill:#DE4231;}
	.st1{fill:#FFFFFF;stroke:#1D1D1B;}
	.st2{fill:#1D1D1B;}
	.st3{fill:#FFFFFF;}
	.st4{fill:#DE4231;stroke:#1D1D1B;stroke-width:2;}
</style>
<path class="st0" d="M68.02,122.06c0,0,56.46-35.78,57.83-64.25s-20.2-34.9-20.2-34.9s-20.2-7.34-37.64,14.69
	c0,0-11.02-22.95-40.39-13.31c0,0-31.21,11.02-9.18,54.16C18.45,78.45,41.86,112.42,68.02,122.06z"/>
<g>
	<circle class="st1" cx="47.44" cy="55.34" r="13.69"/>
	<circle class="st2" cx="47.44" cy="55.34" r="6.84"/>
	<circle class="st3" cx="49.71" cy="53.35" r="1.23"/>
</g>
<g>
	<circle class="st1" cx="87.39" cy="55.34" r="13.69"/>
	<circle class="st2" cx="87.39" cy="55.34" r="6.84"/>
	<circle class="st3" cx="89.67" cy="53.35" r="1.23"/>
</g>
<path class="st4" d="M54.28,96.71c0,0,10.5-15.78,26.27,0"/>
<line class="st4" x1="90.9" y1="34.35" x2="105.84" y2="45.45"/>
<line class="st4" x1="41.22" y1="35.53" x2="26.28" y2="46.64"/>
</svg>
